<svg width="300" height="402" viewBox="0 0 300 402" fill="none" xmlns="http://www.w3.org/2000/svg">
<path d="M254.312 194.174C279.545 194.174 300 173.719 300 148.486C300 123.253 279.545 102.798 254.312 102.798C229.079 102.798 208.624 123.253 208.624 148.486C208.624 173.719 229.079 194.174 254.312 194.174Z" fill="#2C2D2F"/>
<path d="M46.5143 194.168C71.7471 194.168 92.2023 173.712 92.2023 148.48C92.2023 123.247 71.7471 102.791 46.5143 102.791C21.2815 102.791 0.826245 123.247 0.826245 148.48C0.826245 173.712 21.2815 194.168 46.5143 194.168Z" fill="#646979"/>
<path d="M152.783 401.04C178.016 401.04 198.471 380.584 198.471 355.351C198.471 330.119 178.016 309.663 152.783 309.663C127.55 309.663 107.095 330.119 107.095 355.351C107.095 380.584 127.55 401.04 152.783 401.04Z" fill="#81889D"/>
<path d="M300 0C300 11.9997 297.636 23.8819 293.044 34.9681C288.452 46.0544 281.722 56.1276 273.237 64.6127C264.751 73.0977 254.678 79.8284 243.592 84.4205C232.506 89.0126 220.624 91.3761 208.624 91.3761V0H300Z" fill="#81889D"/>
<path d="M208.624 91.3761C196.624 91.3761 184.742 89.0126 173.656 84.4205C162.569 79.8285 152.496 73.0977 144.011 64.6127C135.526 56.1276 128.795 46.0544 124.203 34.9681C119.611 23.8819 117.248 11.9997 117.248 0H208.624V91.3761Z" fill="#646979"/>
<path d="M91.8651 0C91.8651 24.2344 82.238 47.4763 65.1016 64.6127C47.9653 81.749 24.7234 91.3761 0.488998 91.3761L0.488969 0H91.8651Z" fill="#2F5E5A"/>
<path d="M208.624 102.798C208.624 114.798 206.26 126.68 201.668 137.766C197.076 148.853 190.345 158.926 181.86 167.411C173.375 175.896 163.302 182.627 152.216 187.219C141.13 191.811 129.247 194.174 117.248 194.174V102.798H208.624Z" fill="#05E1C7"/>
<path d="M300 401.04C288 401.04 276.118 398.676 265.032 394.084C253.945 389.492 243.872 382.761 235.387 374.276C226.902 365.791 220.171 355.718 215.579 344.632C210.987 333.545 208.624 321.663 208.624 309.663H300V401.04Z" fill="#646979"/>
<path d="M0 309.842C5.24523e-07 297.842 2.36351 285.96 6.95559 274.874C11.5477 263.788 18.2784 253.714 26.7634 245.229C35.2485 236.744 45.3217 230.013 56.408 225.421C67.4942 220.829 79.3764 218.466 91.3761 218.466L91.3761 309.842H0Z" fill="#05E1C7"/>
<path d="M91.3765 401.218C79.3768 401.218 67.4946 398.855 56.4084 394.262C45.3221 389.67 35.2489 382.94 26.7638 374.455C18.2788 365.97 11.5481 355.896 6.95599 344.81C2.36391 333.724 -1.04905e-06 321.842 0 309.842H91.3761L91.3765 401.218Z" fill="#2C2D2F"/>
<path d="M300 208.135C300 220.134 297.636 232.016 293.044 243.103C288.452 254.189 281.722 264.262 273.237 272.747C264.751 281.232 254.678 287.963 243.592 292.555C232.506 297.147 220.624 299.511 208.624 299.511C196.624 299.511 184.742 297.147 173.656 292.555C162.569 287.963 152.496 281.232 144.011 272.747C135.526 264.262 128.795 254.189 124.203 243.103C119.611 232.016 117.248 220.134 117.248 208.135L300 208.135Z" fill="#2F5E5A"/>
</svg>
