<svg width="29" height="30" viewBox="0 0 29 30" fill="none" xmlns="http://www.w3.org/2000/svg">
<path d="M15.3865 30C20.9228 30 25.9008 26.9475 28.5 22.029L16.8751 15L28.5 7.971C25.9008 3.0525 20.9228 0 15.3865 0C7.17808 0 0.5 6.729 0.5 15C0.5 23.271 7.17808 30 15.3865 30ZM14.6422 6C15.2346 6.0002 15.8027 6.23752 16.2214 6.65976C16.6402 7.082 16.8753 7.65456 16.8751 8.2515C16.8749 8.84844 16.6394 9.42085 16.2204 9.8428C15.8013 10.2648 15.2331 10.5017 14.6407 10.5015C14.0483 10.5013 13.4802 10.264 13.0614 9.84174C12.6427 9.4195 12.4075 8.84694 12.4077 8.25C12.4079 7.65306 12.6434 7.08066 13.0625 6.6587C13.4815 6.23674 14.0497 5.9998 14.6422 6Z" fill="white"/>
</svg>
