<svg width="26" height="26" viewBox="0 0 26 26" fill="none" xmlns="http://www.w3.org/2000/svg">
<path d="M11.1912 21.8816C13.5633 21.8811 15.867 21.0871 17.7355 19.6258L23.6103 25.5006L25.5 23.6109L19.6252 17.7361C21.0872 15.8674 21.8818 13.5631 21.8824 11.1905C21.8824 5.2956 17.086 0.499268 11.1912 0.499268C5.29633 0.499268 0.5 5.2956 0.5 11.1905C0.5 17.0853 5.29633 21.8816 11.1912 21.8816ZM11.1912 3.17206C15.6133 3.17206 19.2096 6.76831 19.2096 11.1905C19.2096 15.6126 15.6133 19.2088 11.1912 19.2088C6.76904 19.2088 3.1728 15.6126 3.1728 11.1905C3.1728 6.76831 6.76904 3.17206 11.1912 3.17206Z" fill="#EEEEEE"/>
</svg>
